<svg xmlns="http://www.w3.org/2000/svg" width="16" height="16">
    <g fill="#241f31" style="display:inline;enable-background:new">
        <path d="M8 1C4.148 1 1 4.145 1 8s3.148 7 7 7c3.855 0 7-3.145 7-7s-3.145-7-7-7zm0 1.992A4.998 4.998 0 0 1 13.008 8 4.998 4.998 0 0 1 8 13.008 4.995 4.995 0 0 1 2.996 8 4.995 4.995 0 0 1 8 2.992zm0 0"/>
        <path d="M8.016 4a4.002 4.002 0 0 0-2.848 1.188c0 .082.016.164.062.242.098.168.192.332.32.465.098-.301.407-.52.778-.52.313 0 .578.156.715.383.266-.278.516-.606 1.059-.633.902-.043.992.668 1.906.855.59.122 1.125.04 1.441-.03A4.012 4.012 0 0 0 8.016 4Zm-.387.422c.086-.012.164.012.203.062.055.07.008.164-.102.211-.109.047-.246.032-.296-.039-.051-.066 0-.164.109-.21a.352.352 0 0 1 .086-.024Zm-.602.172a.33.33 0 0 1 .243.11c.085.112.007.273-.172.35-.184.083-.403.051-.489-.062-.086-.113-.007-.273.172-.351a.608.608 0 0 1 .145-.04c.035-.003.066-.007.101-.007Zm.493.336c.062-.008.12.011.148.047.039.046 0 .117-.078.148-.078.035-.168.02-.203-.031-.035-.047-.008-.106.07-.14.02-.009.043-.02.063-.024Zm.988.906c-.52-.024-.774.402-.817.785-.043.383.973.18.645.75a.847.847 0 0 1-.094.133c-.039.285-.316.508-.652.508a.71.71 0 0 1-.406-.133 1.63 1.63 0 0 0-.04.273c-.03.422.266.758.329 1.024.07-.13.129-.27.18-.43.097.399.222.652.347.906.39-.035.7-.226 1.004-.437a5.044 5.044 0 0 1-.668 1.058c.57.22 1.098.168 1.61.004-.36.301-.708.532-1.438.602.527.16 1.113.34 1.844.117-.672.39-1.38.684-2.196.66l.809-.008-1.625.07-.848-.155.031-.375c-.351.039-.746-.16-1.128-.282.343-.152.71-.273.94-.562-.401-.082-.616-.344-.886-.559-.176.215-.304.414-.523.41-.403-.011-.531-.562-.48-.886.05-.32.69-.16.683-.407a.859.859 0 0 0 .195.157c.387.222.863.129 1.059-.211.199-.34.05-.793-.336-1.016-.387-.223-.863-.129-1.059.211a.651.651 0 0 0-.008.633 2.962 2.962 0 0 0-.566-.352l-.375-.812A4.001 4.001 0 0 0 8.016 12a4.003 4.003 0 0 0 3.992-3.637c-.102-.289-.39-1.086-.7-1.265-.019-.012-.038-.016-.062-.024.024.055.031.113.008.156-.04.067-.129.063-.203-.007a.26.26 0 0 1-.086-.164c-.207.07-.36.304-.41.546-.075.368.441.954.441.954-.355 0-.863.027-1.05-.477-.16-.426.156-1.043-.176-1.36 0 0-.743-.859-1.262-.882zm2.281 1.621c.02-.004.031 0 .047 0 .07.004.148.04.223.11.144.136.203.343.132.468-.07.125-.238.113-.386-.023-.145-.137-.203-.344-.133-.469a.171.171 0 0 1 .117-.086ZM6.281 9.301a.951.951 0 0 0-.226.039c-.258.078-.426.238-.567.398.371.086.727.278 1.13.164a3.58 3.58 0 0 1-.15-.586 1.4 1.4 0 0 0-.187-.015Zm.762.187c.027.047.047.09.078.133a.818.818 0 0 0 .11-.094.49.49 0 0 1-.188-.039Zm.36.64c-.391 0-.708.243-.708.536 0 .29.317.524.707.524.391 0 .707-.235.707-.524 0-.293-.316-.535-.707-.535zm0 .216c.234 0 .421.144.421.32 0 .172-.187.313-.422.313-.234 0-.422-.141-.422-.313 0-.176.188-.32.422-.32zm2.558.226c.07.004.101.09.07.188-.035.094-.117.16-.191.156-.07-.008-.102-.094-.07-.187.035-.098.117-.165.19-.157zm0 0"/>
    </g>
</svg>
