<?xml version="1.0" encoding="UTF-8"?>
<svg height="128px" viewBox="0 0 128 128" width="128px" xmlns="http://www.w3.org/2000/svg" xmlns:xlink="http://www.w3.org/1999/xlink">
    <linearGradient id="a" gradientUnits="userSpaceOnUse" x1="21.573593" x2="106.426407" y1="20.573593" y2="105.426422">
        <stop offset="0" stop-color="#ffffff" stop-opacity="0.4"/>
        <stop offset="1" stop-color="#ffffff" stop-opacity="0"/>
    </linearGradient>
    <path d="m 124 65 c 0 33.136719 -26.863281 60 -60 60 s -60 -26.863281 -60 -60 s 26.863281 -60 60 -60 s 60 26.863281 60 60 z m 0 0" fill="#808080"/>
    <path d="m 124 63 c 0 33.136719 -26.863281 60 -60 60 s -60 -26.863281 -60 -60 s 26.863281 -60 60 -60 s 60 26.863281 60 60 z m 0 0" fill="#b3b3b3"/>
    <g fill="#989898">
        <path d="m 74 33 c 0 9.941406 -8.058594 18 -18 18 s -18 -8.058594 -18 -18 s 8.058594 -18 18 -18 s 18 8.058594 18 18 z m 0 0"/>
        <path d="m 71 16.5 c 0 0.828125 -0.671875 1.5 -1.5 1.5 s -1.5 -0.671875 -1.5 -1.5 s 0.671875 -1.5 1.5 -1.5 s 1.5 0.671875 1.5 1.5 z m 0 0"/>
        <path d="m 94 43 c 0 5.523438 -4.476562 10 -10 10 s -10 -4.476562 -10 -10 s 4.476562 -10 10 -10 s 10 4.476562 10 10 z m 0 0"/>
        <path d="m 104 61 c 0 7.730469 -6.269531 14 -14 14 s -14 -6.269531 -14 -14 s 6.269531 -14 14 -14 s 14 6.269531 14 14 z m 0 0"/>
        <path d="m 118 63 c 0 3.3125 -2.6875 6 -6 6 s -6 -2.6875 -6 -6 s 2.6875 -6 6 -6 s 6 2.6875 6 6 z m 0 0"/>
        <path d="m 112 83 c 0 5.523438 -4.476562 10 -10 10 s -10 -4.476562 -10 -10 s 4.476562 -10 10 -10 s 10 4.476562 10 10 z m 0 0"/>
        <path d="m 90 89 c 0 3.3125 -2.6875 6 -6 6 s -6 -2.6875 -6 -6 s 2.6875 -6 6 -6 s 6 2.6875 6 6 z m 0 0"/>
        <path d="m 78 53 c 0 4.417969 -3.582031 8 -8 8 s -8 -3.582031 -8 -8 s 3.582031 -8 8 -8 s 8 3.582031 8 8 z m 0 0"/>
        <path d="m 46 79 c 0 5.523438 -4.476562 10 -10 10 s -10 -4.476562 -10 -10 s 4.476562 -10 10 -10 s 10 4.476562 10 10 z m 0 0"/>
        <path d="m 26 77 c 0 3.3125 -2.6875 6 -6 6 s -6 -2.6875 -6 -6 s 2.6875 -6 6 -6 s 6 2.6875 6 6 z m 0 0"/>
        <path d="m 46 43 c 0 9.941406 -8.058594 18 -18 18 s -18 -8.058594 -18 -18 s 8.058594 -18 18 -18 s 18 8.058594 18 18 z m 0 0"/>
        <path d="m 60 55 c 0 4.417969 -3.582031 8 -8 8 s -8 -3.582031 -8 -8 s 3.582031 -8 8 -8 s 8 3.582031 8 8 z m 0 0"/>
        <path d="m 41.5 21 c 0 4.140625 -3.359375 7.5 -7.5 7.5 s -7.5 -3.359375 -7.5 -7.5 s 3.359375 -7.5 7.5 -7.5 s 7.5 3.359375 7.5 7.5 z m 0 0"/>
        <path d="m 96 23 c 0 3.3125 -2.6875 6 -6 6 s -6 -2.6875 -6 -6 s 2.6875 -6 6 -6 s 6 2.6875 6 6 z m 0 0"/>
        <path d="m 106 27 c 0 0.550781 -0.449219 1 -1 1 s -1 -0.449219 -1 -1 s 0.449219 -1 1 -1 s 1 0.449219 1 1 z m 0 0"/>
        <path d="m 120.398438 49 c 0 0.773438 -0.625 1.398438 -1.398438 1.398438 s -1.398438 -0.625 -1.398438 -1.398438 s 0.625 -1.398438 1.398438 -1.398438 s 1.398438 0.625 1.398438 1.398438 z m 0 0"/>
        <path d="m 118 46 c 0 0.550781 -0.449219 1 -1 1 s -1 -0.449219 -1 -1 s 0.449219 -1 1 -1 s 1 0.449219 1 1 z m 0 0"/>
        <path d="m 112 44 c 0 0.550781 -0.449219 1 -1 1 s -1 -0.449219 -1 -1 s 0.449219 -1 1 -1 s 1 0.449219 1 1 z m 0 0"/>
        <path d="m 112.5 51 c 0 0.828125 -0.671875 1.5 -1.5 1.5 s -1.5 -0.671875 -1.5 -1.5 s 0.671875 -1.5 1.5 -1.5 s 1.5 0.671875 1.5 1.5 z m 0 0"/>
        <path d="m 28 86 c 0 1.105469 -0.894531 2 -2 2 s -2 -0.894531 -2 -2 s 0.894531 -2 2 -2 s 2 0.894531 2 2 z m 0 0"/>
        <path d="m 93 110 c 0 1.105469 -0.894531 2 -2 2 s -2 -0.894531 -2 -2 s 0.894531 -2 2 -2 s 2 0.894531 2 2 z m 0 0"/>
        <path d="m 100 103 c 0 1.105469 -0.894531 2 -2 2 s -2 -0.894531 -2 -2 s 0.894531 -2 2 -2 s 2 0.894531 2 2 z m 0 0"/>
        <path d="m 66 87 c 0 0.550781 -0.449219 1 -1 1 s -1 -0.449219 -1 -1 s 0.449219 -1 1 -1 s 1 0.449219 1 1 z m 0 0"/>
        <path d="m 55 73 c 0 1.105469 -0.894531 2 -2 2 s -2 -0.894531 -2 -2 s 0.894531 -2 2 -2 s 2 0.894531 2 2 z m 0 0"/>
        <path d="m 44 67 c 0 6.628906 -5.371094 12 -12 12 s -12 -5.371094 -12 -12 s 5.371094 -12 12 -12 s 12 5.371094 12 12 z m 0 0"/>
    </g>
    <path d="m 34 13.5 c -4.140625 0 -7.5 3.359375 -7.5 7.5 c 0.023438 0.390625 0.082031 0.777344 0.167969 1.160156 c 0.421875 -3.75 3.558593 -6.601562 7.332031 -6.660156 c 3.683594 0.003906 6.820312 2.6875 7.394531 6.324219 c 0.050781 -0.273438 0.085938 -0.546875 0.105469 -0.824219 c 0 -4.140625 -3.359375 -7.5 -7.5 -7.5 z m 22 1.5 c -5.765625 0.027344 -11.167969 2.8125 -14.53125 7.492188 c 0.015625 0.171874 0.027344 0.339843 0.03125 0.507812 c -0.007812 0.570312 -0.078125 1.140625 -0.214844 1.695312 c 3.359375 -4.808593 8.851563 -7.679687 14.714844 -7.695312 c 9.359375 0 17.15625 7.171875 17.9375 16.5 c 0.023438 -0.167969 0.042969 -0.332031 0.0625 -0.5 c 0 -9.941406 -8.058594 -18 -18 -18 z m 13.5 0 c -0.828125 0 -1.5 0.671875 -1.5 1.5 c 0.007812 0.375 0.15625 0.730469 0.414062 1 c 0.277344 -0.308594 0.671876 -0.492188 1.085938 -0.5 c 0.414062 0.003906 0.8125 0.175781 1.09375 0.480469 c 0.25 -0.265625 0.394531 -0.613281 0.40625 -0.980469 c 0 -0.828125 -0.671875 -1.5 -1.5 -1.5 z m 20.5 2 c -3.3125 0 -6 2.6875 -6 6 c 0.039062 0.339844 0.105469 0.671875 0.199219 1 c 0.480469 -2.84375 2.917969 -4.945312 5.800781 -5 c 2.824219 0.007812 5.261719 1.984375 5.851562 4.742188 c 0.066407 -0.242188 0.113282 -0.492188 0.148438 -0.742188 c 0 -3.3125 -2.6875 -6 -6 -6 z m -63.183594 8.136719 c -9.421875 0.617187 -16.765625 8.417969 -16.816406 17.863281 c 0.03125 0.3125 0.070312 0.625 0.121094 0.9375 c 0.558594 -9.34375 8.191406 -16.699219 17.550781 -16.914062 c -0.371094 -0.585938 -0.65625 -1.222657 -0.855469 -1.886719 z m 78.183594 0.863281 c -0.550781 0 -1 0.449219 -1 1 s 0.449219 1 1 1 s 1 -0.449219 1 -1 s -0.449219 -1 -1 -1 z m -65.628906 2.207031 c -0.570313 0.589844 -1.230469 1.078125 -1.960938 1.453125 c 0.414063 0.253906 0.8125 0.519532 1.199219 0.804688 c 0.207031 -0.769532 0.457031 -1.523438 0.761719 -2.257813 z m 44.628906 4.792969 c -5.523438 0 -10 4.476562 -10 10 c 0.015625 0.414062 0.054688 0.828125 0.121094 1.238281 c 0.394531 -5.175781 4.6875 -9.191406 9.878906 -9.238281 c 5.035156 0.003906 9.28125 3.75 9.914062 8.742188 c 0.039063 -0.246094 0.066407 -0.492188 0.085938 -0.742188 c 0 -5.523438 -4.476562 -10 -10 -10 z m 27 10 c -0.550781 0 -1 0.449219 -1 1 s 0.449219 1 1 1 s 1 -0.449219 1 -1 s -0.449219 -1 -1 -1 z m 6 2 c -0.550781 0 -1 0.449219 -1 1 s 0.449219 1 1 1 s 1 -0.449219 1 -1 s -0.449219 -1 -1 -1 z m -46.292969 0.113281 c -0.410156 0.671875 -0.867187 1.320313 -1.363281 1.933594 c 0.21875 -0.023437 0.4375 -0.039063 0.65625 -0.046875 c 1.671875 0 3.300781 0.523438 4.660156 1.5 c -0.269531 -0.734375 -0.449218 -1.496094 -0.539062 -2.269531 c -1.039063 -0.628907 -2.207032 -1.011719 -3.414063 -1.117188 z m 22.917969 2.445313 c -0.152344 0.609375 -0.363281 1.203125 -0.625 1.773437 c 6.023438 1.367188 10.441406 6.523438 10.863281 12.6875 c 0.058594 -0.339843 0.105469 -0.679687 0.136719 -1.019531 c -0.035156 -6.304688 -4.285156 -11.808594 -10.375 -13.441406 z m 25.375 0.042968 c -0.773438 -0.003906 -1.402344 0.625 -1.398438 1.398438 c 0 0.378906 0.15625 0.738281 0.429688 1 c 0.261719 -0.253906 0.605469 -0.398438 0.96875 -0.398438 c 0.367188 0 0.71875 0.140626 0.980469 0.398438 c 0.265625 -0.261719 0.417969 -0.625 0.417969 -1 c 0.003906 -0.773438 -0.625 -1.402344 -1.398438 -1.398438 z m -8 1.898438 c -0.828125 0 -1.5 0.671875 -1.5 1.5 c 0.007812 0.375 0.15625 0.730469 0.414062 1 c 0.277344 -0.308594 0.671876 -0.492188 1.085938 -0.5 c 0.414062 0.003906 0.8125 0.175781 1.09375 0.480469 c 0.25 -0.265625 0.394531 -0.613281 0.40625 -0.980469 c 0 -0.828125 -0.671875 -1.5 -1.5 -1.5 z m -65.015625 0.371094 c -1.246094 1.421875 -1.949219 3.238281 -1.984375 5.128906 c 0.03125 0.335938 0.085938 0.667969 0.15625 1 c 0.253906 -2.117188 1.34375 -4.046875 3.023438 -5.359375 c -0.40625 -0.242187 -0.804688 -0.496094 -1.195313 -0.769531 z m 16.75 1.777344 c -0.199219 0.0625 -0.402344 0.117187 -0.609375 0.171874 c -0.070312 0.390626 -0.113281 0.785157 -0.125 1.179688 c 0.027344 0.273438 0.070312 0.542969 0.128906 0.8125 c 0.101563 -0.746094 0.304688 -1.476562 0.605469 -2.164062 z m -3.15625 0.894531 c -0.261719 0.082031 -0.527344 0.15625 -0.792969 0.226562 c 0.578125 0.96875 0.9375 2.050781 1.066406 3.167969 c 0.066407 -0.308594 0.117188 -0.621094 0.148438 -0.9375 c -0.011719 -0.835938 -0.152344 -1.664062 -0.421875 -2.457031 z m 18.089844 0.175781 c 0.121093 0.40625 0.207031 0.816406 0.261719 1.238281 c 0.042968 -0.320312 0.066406 -0.636719 0.070312 -0.957031 c 0 -0.019531 0 -0.042969 0 -0.0625 c -0.113281 -0.070312 -0.222656 -0.144531 -0.332031 -0.21875 z m 0.777343 0.507812 c -0.179687 0.238282 -0.351562 0.484376 -0.511718 0.734376 c 0.042968 0.347656 0.066406 0.691406 0.066406 1.039062 c -0.003906 0.324219 -0.027344 0.644531 -0.070312 0.96875 c 0.425781 -0.75 0.917968 -1.457031 1.476562 -2.113281 c -0.332031 -0.191407 -0.652344 -0.402344 -0.960938 -0.628907 z m 33.554688 3.773438 c -3.3125 0 -6 2.6875 -6 6 c 0.039062 0.339844 0.105469 0.671875 0.199219 1 c 0.480469 -2.84375 2.917969 -4.945312 5.800781 -5 c 2.824219 0.007812 5.261719 1.984375 5.851562 4.742188 c 0.066407 -0.242188 0.113282 -0.492188 0.148438 -0.742188 c 0 -3.3125 -2.6875 -6 -6 -6 z m -71.972656 1.199219 c -0.34375 0.355469 -0.699219 0.699219 -1.070313 1.027343 c 2.863281 2.074219 4.667969 5.304688 4.929688 8.832032 c 0.054687 -0.351563 0.089843 -0.703125 0.113281 -1.058594 c -0.035156 -3.363281 -1.476562 -6.554688 -3.972656 -8.800781 z m 36.390625 1.542969 c -0.097657 0.097656 -0.195313 0.195312 -0.292969 0.289062 c -0.054688 0.324219 -0.09375 0.644531 -0.125 0.96875 c 0.03125 0.332031 0.074219 0.660156 0.128906 0.988281 c 0.035156 -0.753906 0.132813 -1.507812 0.289063 -2.246093 z m -54.964844 1.890624 c -0.898437 1.652344 -1.394531 3.488282 -1.453125 5.367188 c 0.015625 0.421875 0.058594 0.84375 0.121094 1.261719 c 0.117187 -2.238281 0.863281 -4.398438 2.148437 -6.238281 c -0.273437 -0.121094 -0.546875 -0.253907 -0.816406 -0.390626 z m -1.453125 9.367188 c -3.3125 0 -6 2.6875 -6 6 c 0.039062 0.339844 0.105469 0.671875 0.199219 1 c 0.480469 -2.84375 2.917969 -4.945312 5.800781 -5 c 0.246094 0 0.492188 0.015625 0.734375 0.046875 c -0.242187 -0.660156 -0.421875 -1.34375 -0.546875 -2.035156 c -0.0625 -0.003907 -0.125 -0.007813 -0.1875 -0.011719 z m 33 0 c -1.105469 0 -2 0.894531 -2 2 c 0 0.351562 0.09375 0.695312 0.265625 1 c 0.359375 -0.617188 1.019531 -1 1.734375 -1 c 0.714844 0.003906 1.371094 0.386719 1.722656 1.007812 c 0.179688 -0.304687 0.277344 -0.652343 0.277344 -1.007812 c 0 -1.105469 -0.894531 -2 -2 -2 z m -9.570312 1.417969 c -0.125 0.484375 -0.277344 0.957031 -0.460938 1.417969 c 1.636719 1.632812 2.65625 3.78125 2.886719 6.082031 c 0.0625 -0.304688 0.109375 -0.609375 0.144531 -0.917969 c -0.027344 -2.433594 -0.941406 -4.773438 -2.570312 -6.582031 z m 58.570312 0.582031 c -0.953125 0.015625 -1.898438 0.164062 -2.8125 0.445312 c -1.199219 1.042969 -2.570312 1.871094 -4.050781 2.449219 c -1.960938 1.851563 -3.089844 4.410157 -3.136719 7.105469 c 0.035156 0.335938 0.089844 0.667969 0.15625 1 c 0.511719 -5.070312 4.75 -8.945312 9.84375 -9 c 4.996094 0.003906 9.222656 3.695312 9.898438 8.644531 c 0.039062 -0.210937 0.074218 -0.429687 0.101562 -0.644531 c 0 -5.523438 -4.476562 -10 -10 -10 z m -75.9375 6.394531 c 0.015625 0.101563 0.03125 0.203125 0.046875 0.304688 c 0.007813 -0.089844 0.015625 -0.179688 0.023437 -0.265625 c -0.023437 -0.011719 -0.046874 -0.023438 -0.070312 -0.039063 z m 57.9375 3.605469 c -3.3125 0 -6 2.6875 -6 6 c 0.039062 0.339844 0.105469 0.671875 0.199219 1 c 0.480469 -2.84375 2.917969 -4.945312 5.800781 -5 c 2.824219 0.007812 5.261719 1.984375 5.851562 4.742188 c 0.066407 -0.242188 0.113282 -0.492188 0.148438 -0.742188 c 0 -3.3125 -2.6875 -6 -6 -6 z m -58 1 c -1.105469 0 -2 0.894531 -2 2 c 0 0.351562 0.09375 0.695312 0.265625 1 c 0.359375 -0.617188 1.019531 -1 1.734375 -1 c 0.714844 0.003906 1.371094 0.386719 1.722656 1.007812 c 0.039063 -0.101562 0.070313 -0.207031 0.089844 -0.316406 c -0.566406 -0.804687 -1.015625 -1.691406 -1.328125 -2.628906 c -0.15625 -0.039062 -0.320313 -0.0625 -0.484375 -0.0625 z m 39 2 c -0.550781 0 -1 0.449219 -1 1 s 0.449219 1 1 1 s 1 -0.449219 1 -1 s -0.449219 -1 -1 -1 z m 33 15 c -1.105469 0 -2 0.894531 -2 2 c 0 0.351562 0.09375 0.695312 0.265625 1 c 0.359375 -0.617188 1.019531 -1 1.734375 -1 c 0.714844 0.003906 1.371094 0.386719 1.722656 1.007812 c 0.179688 -0.304687 0.277344 -0.652343 0.277344 -1.007812 c 0 -1.105469 -0.894531 -2 -2 -2 z m -7 7 c -1.105469 0 -2 0.894531 -2 2 c 0 0.351562 0.09375 0.695312 0.265625 1 c 0.359375 -0.617188 1.019531 -1 1.734375 -1 c 0.714844 0.003906 1.371094 0.386719 1.722656 1.007812 c 0.179688 -0.304687 0.277344 -0.652343 0.277344 -1.007812 c 0 -1.105469 -0.894531 -2 -2 -2 z m 0 0" fill="#77767b"/>
    <path d="m 43.125 79.15625 l 2.875 -6.15625 l -1.53125 7.59375 l -0.058594 6.707031 l 3.089844 1.574219 l 3.5 -1.875 l 4 -1 l 2 -2 l -1 -2 l -1 -1 l 8 -8 h 2 h -2 l -7 8 l 2 4 l -3 1 l -5 2 l 1 1 h 2 l 2 2 l -1 1 l 4 -1 l 4 -6 l 1 -3 h 2 h -1 l -1 2 l -1 1 l -2 4 l -3 3 h -2 l -1 1 v 2 l 1 1 l 2 1 h 3 l 10 -2 l 4 -1 l 3 -2 h 4 l -25 9 l -1 1 l 2 1 l 5 1 l 1 2 h -10 l -2 1 v 2 l -2 1 l -2 -1 h -1 l -3 1 l -2 1 l 2 3 v 2 l -4 -1 h -2 l -1 -4 l -2 -1 l -1 -2 h -1 l -3 3 l -1 -1 l 1 -2 l 1 -1 l 1 -2 l -3 -3 v -2 l -3 -1 h -5 l -2 -1 l 1 -1 l 4 2 l 5 -1 l -1 -1 l -5 -2 l -1 -2 l -4 -3 l -3 -4 l -1 -2 l -2 -3 l 1 -1 l 1 2 l 4 6 l 3 2 l 4 3 h 5 l 2 -2 v -2 l -1 -2 l -2 -3 l -1 -4 l -0.71875 -4.53125 l -1.1875 -8.03125 l 1.625 9.25 l 2.175781 5.828125 l 4.105469 6.542969 l 6.933594 -0.664063 z m 0 0" fill="#ffffff" fill-opacity="0.2" stroke="#b4b4b4" stroke-width="0.2"/>
    <path d="m 49 99 c 0 5.523438 -4.476562 10 -10 10 s -10 -4.476562 -10 -10 s 4.476562 -10 10 -10 s 10 4.476562 10 10 z m 0 0" fill="#ffffff" fill-opacity="0.101961"/>
    <path d="m 41 99 c 0 1.105469 -0.894531 2 -2 2 s -2 -0.894531 -2 -2 s 0.894531 -2 2 -2 s 2 0.894531 2 2 z m 0 0" fill="#f5f5f5" fill-opacity="0.301961"/>
    <path d="m 124 63 c 0 33.136719 -26.863281 60 -60 60 s -60 -26.863281 -60 -60 s 26.863281 -60 60 -60 s 60 26.863281 60 60 z m 0 0" fill="url(#a)"/>
</svg>
