<?xml version="1.0" encoding="UTF-8" standalone="no"?>
<!-- Created with Inkscape (http://www.inkscape.org/) -->

<svg
   inkscape:export-ydpi="96"
   inkscape:export-xdpi="96"
   inkscape:export-filename="Template.png"
   width="192"
   height="152"
   id="svg11300"
   sodipodi:version="0.32"
   inkscape:version="1.2.2 (b0a8486541, 2022-12-01)"
   sodipodi:docname="com.ranfdev.Geopard.Source.svg"
   inkscape:output_extension="org.inkscape.output.svg.inkscape"
   version="1.0"
   style="display:inline;enable-background:new"
   viewBox="0 0 192 152"
   xml:space="preserve"
   xmlns:inkscape="http://www.inkscape.org/namespaces/inkscape"
   xmlns:sodipodi="http://sodipodi.sourceforge.net/DTD/sodipodi-0.dtd"
   xmlns:xlink="http://www.w3.org/1999/xlink"
   xmlns="http://www.w3.org/2000/svg"
   xmlns:svg="http://www.w3.org/2000/svg"
   xmlns:rdf="http://www.w3.org/1999/02/22-rdf-syntax-ns#"
   xmlns:cc="http://creativecommons.org/ns#"
   xmlns:dc="http://purl.org/dc/elements/1.1/"><title
     id="title4162">Adwaita Icon Template</title><defs
     id="defs3"><linearGradient
       inkscape:collect="always"
       id="linearGradient1682"><stop
         style="stop-color:#ffffff;stop-opacity:0.40000001;"
         offset="0"
         id="stop1678" /><stop
         style="stop-color:#ffffff;stop-opacity:0;"
         offset="1"
         id="stop1680" /></linearGradient><linearGradient
       inkscape:collect="always"
       xlink:href="#linearGradient1682"
       id="linearGradient16742"
       x1="21.573593"
       y1="192.57359"
       x2="106.42641"
       y2="277.42642"
       gradientUnits="userSpaceOnUse" /></defs><sodipodi:namedview
     stroke="#ef2929"
     fill="#f57900"
     id="base"
     pagecolor="#ffffff"
     bordercolor="#666666"
     borderopacity="0.25490196"
     inkscape:pageopacity="0.0"
     inkscape:pageshadow="2"
     inkscape:zoom="3.1578947"
     inkscape:cx="95.95"
     inkscape:cy="76"
     inkscape:current-layer="layer1"
     showgrid="false"
     inkscape:grid-bbox="true"
     inkscape:document-units="px"
     inkscape:showpageshadow="false"
     inkscape:window-width="1280"
     inkscape:window-height="731"
     inkscape:window-x="0"
     inkscape:window-y="0"
     width="400px"
     height="300px"
     inkscape:snap-nodes="true"
     inkscape:snap-bbox="true"
     objecttolerance="7"
     gridtolerance="12"
     guidetolerance="13"
     inkscape:window-maximized="1"
     inkscape:pagecheckerboard="false"
     showguides="false"
     inkscape:guide-bbox="true"
     inkscape:locked="false"
     inkscape:measure-start="0,0"
     inkscape:measure-end="0,0"
     inkscape:object-nodes="true"
     inkscape:bbox-nodes="true"
     inkscape:snap-global="true"
     inkscape:object-paths="true"
     inkscape:snap-intersection-paths="true"
     inkscape:snap-bbox-edge-midpoints="true"
     inkscape:snap-bbox-midpoints="true"
     showborder="true"
     inkscape:snap-center="true"
     inkscape:snap-object-midpoints="true"
     inkscape:snap-midpoints="true"
     inkscape:snap-smooth-nodes="true"
     inkscape:snap-text-baseline="true"
     borderlayer="true"
     inkscape:deskcolor="#d1d1d1"><inkscape:grid
       type="xygrid"
       id="grid5883"
       spacingx="2"
       spacingy="2"
       enabled="true"
       visible="true"
       empspacing="4"
       originx="8"
       originy="8" /><sodipodi:guide
       position="72,16"
       orientation="0,1"
       id="guide1073"
       inkscape:locked="false"
       inkscape:label=""
       inkscape:color="rgb(0,0,255)" /><sodipodi:guide
       position="20,72"
       orientation="1,0"
       id="guide1075"
       inkscape:locked="false"
       inkscape:label=""
       inkscape:color="rgb(0,0,255)" /><sodipodi:guide
       position="72,112"
       orientation="0,1"
       id="guide1099"
       inkscape:locked="false"
       inkscape:label=""
       inkscape:color="rgb(0,0,255)" /><sodipodi:guide
       position="72,136"
       orientation="0,1"
       id="guide993"
       inkscape:locked="false"
       inkscape:label=""
       inkscape:color="rgb(0,0,255)" /><sodipodi:guide
       position="112,72"
       orientation="1,0"
       id="guide995"
       inkscape:locked="false"
       inkscape:label=""
       inkscape:color="rgb(0,0,255)" /><sodipodi:guide
       position="8.0000001,72"
       orientation="1,0"
       id="guide867"
       inkscape:locked="false"
       inkscape:label=""
       inkscape:color="rgb(0,0,255)" /><sodipodi:guide
       position="128,72"
       orientation="1,0"
       id="guide869"
       inkscape:locked="false"
       inkscape:label=""
       inkscape:color="rgb(0,0,255)" /><sodipodi:guide
       position="72,124"
       orientation="0,1"
       id="guide871"
       inkscape:locked="false"
       inkscape:label=""
       inkscape:color="rgb(0,0,255)" /><inkscape:grid
       type="xygrid"
       id="grid873"
       spacingx="1"
       spacingy="1"
       empspacing="8"
       color="#000000"
       opacity="0.49019608"
       empcolor="#000000"
       empopacity="0.08627451"
       dotted="true"
       originx="8"
       originy="8" /><sodipodi:guide
       position="32,72"
       orientation="1,0"
       id="guide877"
       inkscape:locked="false"
       inkscape:label=""
       inkscape:color="rgb(0,0,255)" /><sodipodi:guide
       position="124,72"
       orientation="1,0"
       id="guide879"
       inkscape:locked="false"
       inkscape:label=""
       inkscape:color="rgb(0,0,255)" /><sodipodi:guide
       position="72,128"
       orientation="0,1"
       id="guide881"
       inkscape:locked="false"
       inkscape:label=""
       inkscape:color="rgb(0,0,255)" /><sodipodi:guide
       position="72,20"
       orientation="0,1"
       id="guide883"
       inkscape:locked="false"
       inkscape:label=""
       inkscape:color="rgb(0,0,255)" /><sodipodi:guide
       position="16,72"
       orientation="1,0"
       id="guide885"
       inkscape:locked="false"
       inkscape:label=""
       inkscape:color="rgb(0,0,255)" /><sodipodi:guide
       position="136,72"
       orientation="1,0"
       id="guide887"
       inkscape:locked="false"
       inkscape:label=""
       inkscape:color="rgb(0,0,255)" /><sodipodi:guide
       position="72,8"
       orientation="0,1"
       id="guide897"
       inkscape:locked="false"
       inkscape:label=""
       inkscape:color="rgb(0,0,255)" /><sodipodi:guide
       position="72,32"
       orientation="0,1"
       id="guide899"
       inkscape:locked="false"
       inkscape:label=""
       inkscape:color="rgb(0,0,255)" /><sodipodi:guide
       position="264,264"
       orientation="-0.70710678,0.70710678"
       id="guide950"
       inkscape:locked="false"
       inkscape:label=""
       inkscape:color="rgb(0,0,255)" /><sodipodi:guide
       position="72,72"
       orientation="0.70710678,0.70710678"
       id="guide952"
       inkscape:locked="false"
       inkscape:label=""
       inkscape:color="rgb(0,0,255)" /></sodipodi:namedview><metadata
     id="metadata4"><rdf:RDF><cc:Work
         rdf:about=""><dc:format>image/svg+xml</dc:format><dc:type
           rdf:resource="http://purl.org/dc/dcmitype/StillImage" /><dc:creator><cc:Agent><dc:title>GNOME Design Team</dc:title></cc:Agent></dc:creator><dc:source /><cc:license
           rdf:resource="http://creativecommons.org/licenses/by-sa/4.0/" /><dc:title>Adwaita Icon Template</dc:title><dc:subject><rdf:Bag /></dc:subject><dc:date /><dc:rights><cc:Agent><dc:title /></cc:Agent></dc:rights><dc:publisher><cc:Agent><dc:title /></cc:Agent></dc:publisher><dc:identifier /><dc:relation /><dc:language /><dc:coverage /><dc:description /><dc:contributor><cc:Agent><dc:title /></cc:Agent></dc:contributor></cc:Work><cc:License
         rdf:about="http://creativecommons.org/licenses/by-sa/4.0/"><cc:permits
           rdf:resource="http://creativecommons.org/ns#Reproduction" /><cc:permits
           rdf:resource="http://creativecommons.org/ns#Distribution" /><cc:requires
           rdf:resource="http://creativecommons.org/ns#Notice" /><cc:requires
           rdf:resource="http://creativecommons.org/ns#Attribution" /><cc:permits
           rdf:resource="http://creativecommons.org/ns#DerivativeWorks" /><cc:requires
           rdf:resource="http://creativecommons.org/ns#ShareAlike" /></cc:License></rdf:RDF></metadata><g
     id="layer1"
     inkscape:label="App Icon"
     inkscape:groupmode="layer"
     style="display:inline"
     transform="translate(8,-156)"><g
       inkscape:groupmode="layer"
       id="layer4"
       inkscape:label="template"
       style="display:inline"
       sodipodi:insensitive="true"><rect
         inkscape:label="0"
         y="172"
         x="9.2651362e-08"
         height="128"
         width="128"
         id="hicolor"
         style="display:inline;overflow:visible;visibility:visible;fill:#f0f0f0;fill-opacity:0;fill-rule:nonzero;stroke:none;stroke-width:0.5;marker:none;enable-background:accumulate" /><rect
         style="display:inline;overflow:visible;visibility:visible;fill:#f0f0f0;fill-opacity:0;fill-rule:nonzero;stroke:none;stroke-width:0.5;marker:none;enable-background:accumulate"
         id="symbolic"
         width="16"
         height="16"
         x="160"
         y="172"
         inkscape:label="0" /></g><g
       inkscape:groupmode="layer"
       id="layer2"
       inkscape:label="baseplate"
       style="display:inline"
       sodipodi:insensitive="true"><g
         style="display:inline;fill:#000000;enable-background:new"
         transform="matrix(7.9911709,0,0,8.0036407,-167.7909,-4846.0776)"
         id="g12027"
         inkscape:export-xdpi="12"
         inkscape:export-ydpi="12" /><rect
         style="display:inline;overflow:visible;visibility:visible;fill:#f0f0f0;fill-opacity:1;fill-rule:nonzero;stroke:none;stroke-width:0.5;marker:none;enable-background:accumulate"
         id="128"
         width="128"
         height="128"
         x="9.2651362e-08"
         y="172"
         inkscape:label="0" /><g
         id="g883"
         style="fill:none;fill-opacity:0.25098;stroke:#a579b3;stroke-opacity:1"
         transform="translate(-24,24)" /><g
         id="g900"
         style="fill:none;fill-opacity:0.25098;stroke:#a579b3;stroke-opacity:1"
         transform="translate(-24,24)" /><rect
         inkscape:label=""
         y="172"
         x="160"
         height="16"
         width="16"
         id="16"
         style="display:inline;overflow:visible;visibility:visible;fill:#f0f0f0;fill-opacity:1;fill-rule:nonzero;stroke:none;stroke-width:0.5;marker:none;enable-background:accumulate" /><text
         xml:space="preserve"
         style="font-style:normal;font-variant:normal;font-weight:bold;font-stretch:normal;font-size:4px;line-height:125%;font-family:Cantarell;-inkscape-font-specification:'Cantarell, Bold';text-align:start;writing-mode:lr-tb;text-anchor:start;display:inline;fill:#000000;fill-opacity:1;stroke:none;stroke-width:0.332649;enable-background:new"
         x="0"
         y="167"
         id="text863"
         inkscape:label="icon-name"><tspan
           style="font-size:4px;stroke-width:0.332649"
           sodipodi:role="line"
           id="tspan861"
           x="0"
           y="167">Hicolor</tspan></text><text
         inkscape:label="icon-name"
         id="text867"
         y="167"
         x="160"
         style="font-style:normal;font-variant:normal;font-weight:bold;font-stretch:normal;font-size:4px;line-height:125%;font-family:Cantarell;-inkscape-font-specification:'Cantarell, Bold';text-align:start;writing-mode:lr-tb;text-anchor:start;display:inline;fill:#000000;fill-opacity:1;stroke:none;stroke-width:0.332649;enable-background:new"
         xml:space="preserve"><tspan
           y="167"
           x="160"
           id="tspan865"
           sodipodi:role="line"
           style="font-size:4px;stroke-width:0.332649">Symbolic</tspan></text></g><g
       inkscape:groupmode="layer"
       id="layer9"
       inkscape:label="icons"
       style="display:inline"><circle
         id="circle13987"
         cx="64"
         cy="237"
         r="60"
         style="fill:#808080" /><circle
         id="path13933"
         cx="64"
         cy="235"
         r="60"
         style="fill:#b3b3b3" /><g
         id="g37803"><circle
           style="display:inline;fill:#989898;fill-opacity:1;fill-rule:nonzero;stroke:none;stroke-width:0;stroke-linecap:round;stroke-linejoin:round;stroke-miterlimit:4;stroke-dasharray:none;stroke-opacity:1;enable-background:new"
           id="path1403"
           cx="56"
           cy="205"
           r="18" /><circle
           style="display:inline;fill:#989898;fill-opacity:1;fill-rule:nonzero;stroke:none;stroke-width:0;stroke-linecap:round;stroke-linejoin:round;stroke-miterlimit:4;stroke-dasharray:none;stroke-opacity:1;enable-background:new"
           id="path1405"
           cx="69.5"
           cy="188.5"
           r="1.5" /><circle
           style="display:inline;fill:#989898;fill-opacity:1;fill-rule:nonzero;stroke:none;stroke-width:0;stroke-linecap:round;stroke-linejoin:round;stroke-miterlimit:4;stroke-dasharray:none;stroke-opacity:1;enable-background:new"
           id="path1407"
           cx="84"
           cy="215"
           r="10" /><circle
           style="display:inline;fill:#989898;fill-opacity:1;fill-rule:nonzero;stroke:none;stroke-width:0;stroke-linecap:round;stroke-linejoin:round;stroke-miterlimit:4;stroke-dasharray:none;stroke-opacity:1;enable-background:new"
           id="path1418"
           cx="90"
           cy="233"
           r="14" /><circle
           style="display:inline;fill:#989898;fill-opacity:1;fill-rule:nonzero;stroke:none;stroke-width:0;stroke-linecap:round;stroke-linejoin:round;stroke-miterlimit:4;stroke-dasharray:none;stroke-opacity:1;enable-background:new"
           id="path1420"
           cx="112"
           cy="235"
           r="6" /><circle
           style="display:inline;fill:#989898;fill-opacity:1;fill-rule:nonzero;stroke:none;stroke-width:0;stroke-linecap:round;stroke-linejoin:round;stroke-miterlimit:4;stroke-dasharray:none;stroke-opacity:1;enable-background:new"
           id="path1422"
           cx="102"
           cy="255"
           r="10" /><circle
           style="display:inline;fill:#989898;fill-opacity:1;fill-rule:nonzero;stroke:none;stroke-width:0;stroke-linecap:round;stroke-linejoin:round;stroke-miterlimit:4;stroke-dasharray:none;stroke-opacity:1;enable-background:new"
           id="path1424"
           cx="84"
           cy="261"
           r="6" /><circle
           style="display:inline;fill:#989898;fill-opacity:1;fill-rule:nonzero;stroke:none;stroke-width:0;stroke-linecap:round;stroke-linejoin:round;stroke-miterlimit:4;stroke-dasharray:none;stroke-opacity:1;enable-background:new"
           id="path1426"
           cx="70"
           cy="225"
           r="8" /><circle
           style="display:inline;fill:#989898;fill-opacity:1;fill-rule:nonzero;stroke:none;stroke-width:0;stroke-linecap:round;stroke-linejoin:round;stroke-miterlimit:4;stroke-dasharray:none;stroke-opacity:1;enable-background:new"
           id="path1429"
           cx="36"
           cy="251"
           r="10" /><circle
           style="display:inline;fill:#989898;fill-opacity:1;fill-rule:nonzero;stroke:none;stroke-width:0;stroke-linecap:round;stroke-linejoin:round;stroke-miterlimit:4;stroke-dasharray:none;stroke-opacity:1;enable-background:new"
           id="path1431"
           cx="20"
           cy="249"
           r="6" /><circle
           style="display:inline;fill:#989898;fill-opacity:1;fill-rule:nonzero;stroke:none;stroke-width:0;stroke-linecap:round;stroke-linejoin:round;stroke-miterlimit:4;stroke-dasharray:none;stroke-opacity:1;enable-background:new"
           id="path1433"
           cx="28"
           cy="215"
           r="18" /><circle
           style="display:inline;fill:#989898;fill-opacity:1;fill-rule:nonzero;stroke:none;stroke-width:0;stroke-linecap:round;stroke-linejoin:round;stroke-miterlimit:4;stroke-dasharray:none;stroke-opacity:1;enable-background:new"
           id="path1435"
           cx="52"
           cy="227"
           r="8" /><circle
           style="display:inline;fill:#989898;fill-opacity:1;fill-rule:nonzero;stroke:none;stroke-width:0;stroke-linecap:round;stroke-linejoin:round;stroke-miterlimit:4;stroke-dasharray:none;stroke-opacity:1;enable-background:new"
           id="path1439"
           cx="34"
           cy="193"
           r="7.5" /><circle
           style="display:inline;fill:#989898;fill-opacity:1;fill-rule:nonzero;stroke:none;stroke-width:0;stroke-linecap:round;stroke-linejoin:round;stroke-miterlimit:4;stroke-dasharray:none;stroke-opacity:1;enable-background:new"
           id="path1441"
           cx="90"
           cy="195"
           r="6" /><circle
           style="display:inline;fill:#989898;fill-opacity:1;fill-rule:nonzero;stroke:none;stroke-width:0;stroke-linecap:round;stroke-linejoin:round;stroke-miterlimit:4;stroke-dasharray:none;stroke-opacity:1;enable-background:new"
           id="path1443"
           cx="105"
           cy="199"
           r="1" /><circle
           style="display:inline;fill:#989898;fill-opacity:1;fill-rule:nonzero;stroke:none;stroke-width:0;stroke-linecap:round;stroke-linejoin:round;stroke-miterlimit:4;stroke-dasharray:none;stroke-opacity:1;enable-background:new"
           id="path1445"
           cx="119"
           cy="221"
           r="1.4" /><circle
           style="display:inline;fill:#989898;fill-opacity:1;fill-rule:nonzero;stroke:none;stroke-width:0;stroke-linecap:round;stroke-linejoin:round;stroke-miterlimit:4;stroke-dasharray:none;stroke-opacity:1;enable-background:new"
           id="path1447"
           cx="117"
           cy="218"
           r="1" /><circle
           style="display:inline;fill:#989898;fill-opacity:1;fill-rule:nonzero;stroke:none;stroke-width:0;stroke-linecap:round;stroke-linejoin:round;stroke-miterlimit:4;stroke-dasharray:none;stroke-opacity:1;enable-background:new"
           id="path1449"
           cx="111"
           cy="216"
           r="1" /><circle
           style="display:inline;fill:#989898;fill-opacity:1;fill-rule:nonzero;stroke:none;stroke-width:0;stroke-linecap:round;stroke-linejoin:round;stroke-miterlimit:4;stroke-dasharray:none;stroke-opacity:1;enable-background:new"
           id="path1451"
           cx="111"
           cy="223"
           r="1.5" /><circle
           style="display:inline;fill:#989898;fill-opacity:1;fill-rule:nonzero;stroke:none;stroke-width:0;stroke-linecap:round;stroke-linejoin:round;stroke-miterlimit:4;stroke-dasharray:none;stroke-opacity:1;enable-background:new"
           id="path1453"
           cx="26"
           cy="258"
           r="2" /><circle
           style="display:inline;fill:#989898;fill-opacity:1;fill-rule:nonzero;stroke:none;stroke-width:0;stroke-linecap:round;stroke-linejoin:round;stroke-miterlimit:4;stroke-dasharray:none;stroke-opacity:1;enable-background:new"
           id="path1455"
           cx="91"
           cy="282"
           r="2" /><circle
           style="display:inline;fill:#989898;fill-opacity:1;fill-rule:nonzero;stroke:none;stroke-width:0;stroke-linecap:round;stroke-linejoin:round;stroke-miterlimit:4;stroke-dasharray:none;stroke-opacity:1;enable-background:new"
           id="path1457"
           cx="98"
           cy="275"
           r="2" /><circle
           style="display:inline;fill:#989898;fill-opacity:1;fill-rule:nonzero;stroke:none;stroke-width:0;stroke-linecap:round;stroke-linejoin:round;stroke-miterlimit:4;stroke-dasharray:none;stroke-opacity:1;enable-background:new"
           id="path1461"
           cx="65"
           cy="259"
           r="1" /><circle
           style="display:inline;fill:#989898;fill-opacity:1;fill-rule:nonzero;stroke:none;stroke-width:0;stroke-linecap:round;stroke-linejoin:round;stroke-miterlimit:4;stroke-dasharray:none;stroke-opacity:1;enable-background:new"
           id="path1463"
           cx="53"
           cy="245"
           r="2" /><circle
           style="display:inline;fill:#989898;fill-opacity:1;fill-rule:nonzero;stroke:none;stroke-width:0;stroke-linecap:round;stroke-linejoin:round;stroke-miterlimit:4;stroke-dasharray:none;stroke-opacity:1;enable-background:new"
           id="path1437"
           cx="32"
           cy="239"
           r="12" /></g><path
         id="circle37672"
         style="display:inline;fill:#77767b;fill-opacity:1;fill-rule:nonzero;stroke:none;stroke-width:0;stroke-linecap:round;stroke-linejoin:round;stroke-miterlimit:4;stroke-dasharray:none;stroke-opacity:1;enable-background:new"
         d="M 34 185.5 A 7.5 7.5 0 0 0 26.5 193 A 7.5 7.5 0 0 0 26.666016 194.16016 A 7.5 7.5 0 0 1 34 187.5 A 7.5 7.5 0 0 1 41.396484 193.82422 A 7.5 7.5 0 0 0 41.5 193 A 7.5 7.5 0 0 0 34 185.5 z M 56 187 A 18 18 0 0 0 41.466797 194.49414 A 7.5 7.5 0 0 1 41.5 195 A 7.5 7.5 0 0 1 41.287109 196.69531 A 18 18 0 0 1 56 189 A 18 18 0 0 1 73.9375 205.5 A 18 18 0 0 0 74 205 A 18 18 0 0 0 56 187 z M 69.5 187 A 1.5 1.5 0 0 0 68 188.5 A 1.5 1.5 0 0 0 68.414062 189.5 A 1.5 1.5 0 0 1 69.5 189 A 1.5 1.5 0 0 1 70.59375 189.48242 A 1.5 1.5 0 0 0 71 188.5 A 1.5 1.5 0 0 0 69.5 187 z M 90 189 A 6 6 0 0 0 84 195 A 6 6 0 0 0 84.199219 196 A 6 6 0 0 1 90 191 A 6 6 0 0 1 95.851562 195.74414 A 6 6 0 0 0 96 195 A 6 6 0 0 0 90 189 z M 26.818359 197.13477 A 18 18 0 0 0 10 215 A 18 18 0 0 0 10.119141 215.9375 A 18 18 0 0 1 27.673828 199.02344 A 7.5 7.5 0 0 1 26.818359 197.13477 z M 105 198 A 1 1 0 0 0 104 199 A 1 1 0 0 0 105 200 A 1 1 0 0 0 106 199 A 1 1 0 0 0 105 198 z M 39.371094 200.20898 A 7.5 7.5 0 0 1 37.412109 201.66016 A 18 18 0 0 1 38.611328 202.46484 A 18 18 0 0 1 39.371094 200.20898 z M 84 205 A 10 10 0 0 0 74 215 A 10 10 0 0 0 74.121094 216.23828 A 10 10 0 0 1 84 207 A 10 10 0 0 1 93.914062 215.74414 A 10 10 0 0 0 94 215 A 10 10 0 0 0 84 205 z M 111 215 A 1 1 0 0 0 110 216 A 1 1 0 0 0 111 217 A 1 1 0 0 0 112 216 A 1 1 0 0 0 111 215 z M 117 217 A 1 1 0 0 0 116 218 A 1 1 0 0 0 117 219 A 1 1 0 0 0 118 218 A 1 1 0 0 0 117 217 z M 70.707031 217.11133 A 18 18 0 0 1 69.34375 219.04688 A 8 8 0 0 1 70 219 A 8 8 0 0 1 74.660156 220.5 A 10 10 0 0 1 74.119141 218.22852 A 8 8 0 0 0 70.707031 217.11133 z M 93.625 219.55859 A 10 10 0 0 1 93 221.33008 A 14 14 0 0 1 103.86523 234.01953 A 14 14 0 0 0 104 233 A 14 14 0 0 0 93.625 219.55859 z M 119 219.59961 A 1.4 1.4 0 0 0 117.59961 221 A 1.4 1.4 0 0 0 118.0332 222 A 1.4 1.4 0 0 1 119 221.59961 A 1.4 1.4 0 0 1 119.97852 222 A 1.4 1.4 0 0 0 120.40039 221 A 1.4 1.4 0 0 0 119 219.59961 z M 111 221.5 A 1.5 1.5 0 0 0 109.5 223 A 1.5 1.5 0 0 0 109.91406 224 A 1.5 1.5 0 0 1 111 223.5 A 1.5 1.5 0 0 1 112.09375 223.98242 A 1.5 1.5 0 0 0 112.5 223 A 1.5 1.5 0 0 0 111 221.5 z M 45.986328 221.87109 A 8 8 0 0 0 44 227 A 8 8 0 0 0 44.158203 227.99805 A 8 8 0 0 1 47.179688 222.64062 A 18 18 0 0 1 45.986328 221.87109 z M 62.736328 223.64844 A 18 18 0 0 1 62.126953 223.82031 A 8 8 0 0 0 62 225 A 8 8 0 0 0 62.128906 225.8125 A 8 8 0 0 1 62.736328 223.64844 z M 59.578125 224.54297 A 18 18 0 0 1 58.787109 224.76758 A 8 8 0 0 1 59.851562 227.93945 A 8 8 0 0 0 60 227 A 8 8 0 0 0 59.578125 224.54297 z M 77.667969 224.71875 A 8 8 0 0 1 77.929688 225.95508 A 8 8 0 0 0 78 225 A 8 8 0 0 0 78 224.93555 A 10 10 0 0 1 77.667969 224.71875 z M 78.445312 225.22656 A 14 14 0 0 0 77.931641 225.96289 A 8 8 0 0 1 78 227 A 8 8 0 0 1 77.929688 227.9668 A 14 14 0 0 1 79.404297 225.85352 A 10 10 0 0 1 78.445312 225.22656 z M 112 229 A 6 6 0 0 0 106 235 A 6 6 0 0 0 106.19922 236 A 6 6 0 0 1 112 231 A 6 6 0 0 1 117.85156 235.74414 A 6 6 0 0 0 118 235 A 6 6 0 0 0 112 229 z M 40.025391 230.19727 A 18 18 0 0 1 38.957031 231.22656 A 12 12 0 0 1 43.886719 240.05859 A 12 12 0 0 0 44 239 A 12 12 0 0 0 40.025391 230.19727 z M 76.417969 231.74219 A 8 8 0 0 1 76.123047 232.0332 A 14 14 0 0 0 76 233 A 14 14 0 0 0 76.130859 233.98828 A 14 14 0 0 1 76.417969 231.74219 z M 21.453125 233.63281 A 12 12 0 0 0 20 239 A 12 12 0 0 0 20.119141 240.25977 A 12 12 0 0 1 22.269531 234.02539 A 18 18 0 0 1 21.453125 233.63281 z M 20 243 A 6 6 0 0 0 14 249 A 6 6 0 0 0 14.199219 250 A 6 6 0 0 1 20 245 A 6 6 0 0 1 20.734375 245.04688 A 12 12 0 0 1 20.189453 243.01172 A 6 6 0 0 0 20 243 z M 53 243 A 2 2 0 0 0 51 245 A 2 2 0 0 0 51.267578 246 A 2 2 0 0 1 53 245 A 2 2 0 0 1 54.724609 246.00781 A 2 2 0 0 0 55 245 A 2 2 0 0 0 53 243 z M 43.429688 244.41992 A 12 12 0 0 1 42.970703 245.83594 A 10 10 0 0 1 45.853516 251.91797 A 10 10 0 0 0 46 251 A 10 10 0 0 0 43.429688 244.41992 z M 102 245 A 10 10 0 0 0 99.189453 245.44531 A 14 14 0 0 1 95.136719 247.89648 A 10 10 0 0 0 92 255 A 10 10 0 0 0 92.158203 256 A 10 10 0 0 1 102 247 A 10 10 0 0 1 111.89844 255.64648 A 10 10 0 0 0 112 255 A 10 10 0 0 0 102 245 z M 26.0625 251.39648 A 10 10 0 0 0 26.111328 251.69727 A 10 10 0 0 1 26.132812 251.43359 A 12 12 0 0 1 26.0625 251.39648 z M 84 255 A 6 6 0 0 0 78 261 A 6 6 0 0 0 78.199219 262 A 6 6 0 0 1 84 257 A 6 6 0 0 1 89.851562 261.74414 A 6 6 0 0 0 90 261 A 6 6 0 0 0 84 255 z M 26 256 A 2 2 0 0 0 24 258 A 2 2 0 0 0 24.267578 259 A 2 2 0 0 1 26 258 A 2 2 0 0 1 27.724609 259.00781 A 2 2 0 0 0 27.814453 258.69141 A 10 10 0 0 1 26.486328 256.06445 A 2 2 0 0 0 26 256 z M 65 258 A 1 1 0 0 0 64 259 A 1 1 0 0 0 65 260 A 1 1 0 0 0 66 259 A 1 1 0 0 0 65 258 z M 98 273 A 2 2 0 0 0 96 275 A 2 2 0 0 0 96.267578 276 A 2 2 0 0 1 98 275 A 2 2 0 0 1 99.724609 276.00781 A 2 2 0 0 0 100 275 A 2 2 0 0 0 98 273 z M 91 280 A 2 2 0 0 0 89 282 A 2 2 0 0 0 89.267578 283 A 2 2 0 0 1 91 282 A 2 2 0 0 1 92.724609 283.00781 A 2 2 0 0 0 93 282 A 2 2 0 0 0 91 280 z " /><path
         style="display:inline;fill:#ffffff;fill-opacity:0.2;stroke:#b4b4b4;stroke-width:0.2;stroke-linecap:butt;stroke-linejoin:miter;stroke-miterlimit:4;stroke-dasharray:none;stroke-opacity:1;enable-background:new"
         d="m 43.125096,251.15625 2.875,-6.15625 -1.53125,7.59375 -0.05977,6.70661 3.09102,1.57464 3.5,-1.875 4,-1 2,-2 -1,-2 -1,-1 2,-2 4,-4 2,-2 h 2 -2 l -7,8 1,2 1,2 -3,1 -5,2 1,1 h 2 l 2,2 -1,1 4,-1 2,-3 2,-3 1,-3 h 2 -1 l -1,2 -1,1 -1,2 -1,2 -1,1 -2,2 h -2 l -1,1 v 2 l 1,1 2,1 h 3 l 5,-1 5,-1 4,-1 3,-2 h 4 l -25,9 -1,1 2,1 5,1 1,2 h -3 -2 -5 l -2,1 v 2 l -2,1 -2,-1 h -1 l -3,1 -2,1 2,3 v 2 l -4,-1 h -2 l -1,-4 -2,-1 -1,-2 h -1 l -1,1 -2,2 -1,-1 1,-2 1,-1 1,-2 -1,-1 -2,-2 v -2 l -3,-1 h -5 l -2,-1 1,-1 4,2 5,-1 -1,-1 -5,-2 -1,-2 -4,-3 -3,-4 -1,-2 -2,-3 1,-1 1,2 2,3 2,3 3,2 4,3 h 3 2 l 2,-2 v -2 l -1,-2 -2,-3 -1,-4 -0.71875,-4.53125 -1.187596,-8.03126 1.625096,9.25001 2.176396,5.82636 4.105281,6.54377 6.934311,-0.66275 z"
         id="path1479"
         inkscape:connector-curvature="0"
         sodipodi:nodetypes="cccccccccccccccccccccccccccccccccccccccccccccccccccccccccccccccccccccccccccccccccccccccccccccccccccccccccccccccc" /><circle
         style="display:inline;fill:#ffffff;fill-opacity:0.1;fill-rule:nonzero;stroke:none;stroke-width:0;stroke-linecap:round;stroke-linejoin:round;stroke-miterlimit:4;stroke-dasharray:none;stroke-opacity:1;enable-background:new"
         id="path1477"
         cx="39"
         cy="271"
         r="10" /><circle
         style="display:inline;fill:#f5f5f5;fill-opacity:0.30000001;fill-rule:nonzero;stroke:none;stroke-width:0;stroke-linecap:round;stroke-linejoin:round;stroke-miterlimit:4;stroke-dasharray:none;stroke-opacity:1;enable-background:new"
         id="path1475"
         cx="39"
         cy="271"
         r="2" /><circle
         id="circle16734"
         cx="64"
         cy="235"
         style="opacity:1;fill:url(#linearGradient16742);fill-opacity:1"
         r="60" /><g
         id="g37306"><path
           d="m 168,173 c -3.85157,0 -7,3.14453 -7,7 0,3.85547 3.14843,7 7,7 3.85547,0 7,-3.14453 7,-7 0,-3.85547 -3.14453,-7 -7,-7 z m 0,1.99219 c 2.77343,0 5.00781,2.23437 5.00781,5.00781 0,2.77344 -2.23438,5.00781 -5.00781,5.00781 -2.77344,0 -5.00391,-2.23437 -5.00391,-5.00781 0,-2.77344 2.23047,-5.00781 5.00391,-5.00781 z m 0,0"
           id="path506"
           style="fill:#241f31" /><path
           d="m 168.01562,176 c -1.11719,0 -2.12109,0.45703 -2.84765,1.1875 0,0.082 0.0156,0.16406 0.0625,0.24219 0.0977,0.16797 0.1914,0.33203 0.32031,0.46484 0.0976,-0.30078 0.40625,-0.51953 0.77734,-0.51953 0.3125,0 0.57813,0.15625 0.71485,0.38281 0.26562,-0.27734 0.51562,-0.60547 1.05859,-0.63281 0.90234,-0.043 0.99219,0.66797 1.90625,0.85547 0.58984,0.12109 1.125,0.0391 1.44141,-0.0312 C 170.74609,176.78516 169.47265,176 168.01562,176 Z m -0.38672,0.42187 c 0.0859,-0.0117 0.16407,0.0117 0.20313,0.0625 0.0547,0.0703 0.008,0.16407 -0.10156,0.21094 -0.10938,0.0469 -0.2461,0.0312 -0.29688,-0.0391 -0.0508,-0.0664 0,-0.16406 0.10938,-0.21094 0.0273,-0.0117 0.0586,-0.0195 0.0859,-0.0234 z m -0.60156,0.17188 c 0.10156,0.004 0.19141,0.0469 0.24219,0.10937 0.0859,0.11329 0.008,0.27344 -0.17188,0.35157 -0.18359,0.082 -0.40234,0.0508 -0.48828,-0.0625 -0.0859,-0.11328 -0.008,-0.27344 0.17188,-0.35157 0.0469,-0.0195 0.0937,-0.0312 0.14453,-0.0391 0.0351,-0.004 0.0664,-0.008 0.10156,-0.008 z m 0.49219,0.33594 c 0.0625,-0.008 0.12109,0.0117 0.14844,0.0469 0.0391,0.0469 0,0.11719 -0.0781,0.14844 -0.0781,0.0352 -0.16797,0.0195 -0.20312,-0.0312 -0.0352,-0.0469 -0.008,-0.10547 0.0703,-0.14063 0.0195,-0.008 0.043,-0.0195 0.0625,-0.0234 z m 0.98828,0.90625 c -0.51953,-0.0234 -0.77344,0.40234 -0.81641,0.78515 -0.043,0.38282 0.97266,0.17969 0.64453,0.75 -0.0351,0.0586 -0.0625,0.0977 -0.0937,0.13282 -0.0391,0.28515 -0.3164,0.50781 -0.65234,0.50781 -0.15625,0 -0.29297,-0.0547 -0.40625,-0.13281 -0.0156,0.0703 -0.0312,0.15234 -0.0391,0.27343 -0.0312,0.42188 0.26562,0.75782 0.32812,1.02344 0.0703,-0.12891 0.12891,-0.26953 0.17969,-0.42969 0.0977,0.39844 0.22266,0.65235 0.34766,0.90625 0.39062,-0.0352 0.69922,-0.22656 1.0039,-0.4375 -0.18359,0.37891 -0.39843,0.73828 -0.66797,1.0586 0.57032,0.21875 1.09766,0.16797 1.60938,0.004 -0.35938,0.30078 -0.70703,0.53125 -1.4375,0.60156 0.52734,0.16016 1.11328,0.33984 1.84375,0.11719 -0.67188,0.39062 -1.37891,0.68359 -2.19531,0.66015 l 0.80859,-0.008 -1.625,0.0703 -0.84766,-0.15625 0.0312,-0.375 c -0.35156,0.0391 -0.74609,-0.16016 -1.1289,-0.28125 0.34375,-0.15234 0.71094,-0.27344 0.9414,-0.5625 -0.40234,-0.082 -0.61718,-0.34375 -0.88671,-0.55859 -0.17579,0.21484 -0.30469,0.41406 -0.52344,0.41015 -0.40235,-0.0117 -0.53125,-0.5625 -0.48047,-0.88672 0.0508,-0.32031 0.69141,-0.16015 0.68359,-0.40625 0.0547,0.0586 0.1211,0.11328 0.19532,0.15625 0.38671,0.22266 0.86328,0.12891 1.05859,-0.21093 0.19922,-0.33985 0.0508,-0.79297 -0.33594,-1.01563 -0.38672,-0.22266 -0.86328,-0.12891 -1.05859,0.21094 -0.11719,0.19922 -0.10938,0.42578 -0.008,0.63281 -0.21094,-0.18359 -0.56641,-0.35156 -0.56641,-0.35156 l -0.375,-0.8125 c -0.0195,0.16015 -0.0312,0.32812 -0.0312,0.49219 0,2.20703 1.79297,3.99609 4.00781,3.99609 2.09375,0 3.8086,-1.59766 3.99219,-3.63672 -0.10156,-0.28906 -0.39063,-1.08594 -0.69922,-1.26562 -0.0195,-0.0117 -0.0391,-0.0156 -0.0625,-0.0234 0.0234,0.0547 0.0312,0.11328 0.008,0.15625 -0.0391,0.0664 -0.12891,0.0625 -0.20312,-0.008 -0.0508,-0.0469 -0.082,-0.10938 -0.0859,-0.16407 -0.20703,0.0703 -0.35937,0.30469 -0.41016,0.54688 -0.0742,0.36719 0.44141,0.95312 0.44141,0.95312 -0.35547,0 -0.86328,0.0273 -1.05078,-0.47656 -0.16016,-0.42578 0.15625,-1.04297 -0.17578,-1.35937 0,0 -0.74219,-0.85938 -1.26172,-0.88282 z m 2.28125,1.62109 c 0.0195,-0.004 0.0312,0 0.0469,0 0.0703,0.004 0.14844,0.0391 0.22266,0.10938 0.14453,0.13671 0.20312,0.34375 0.13281,0.46875 -0.0703,0.125 -0.23828,0.11328 -0.38672,-0.0234 -0.14453,-0.13672 -0.20312,-0.34375 -0.13281,-0.46875 0.0273,-0.0469 0.0703,-0.0781 0.11719,-0.0859 z m -4.50781,1.84375 c -0.0742,0.004 -0.14844,0.0156 -0.22657,0.0391 -0.25781,0.0781 -0.42578,0.23828 -0.5664,0.39844 0.37109,0.0859 0.72656,0.27734 1.1289,0.16406 -0.0703,-0.19531 -0.11328,-0.39062 -0.14843,-0.58593 -0.0586,-0.008 -0.1211,-0.0156 -0.1875,-0.0156 z m 0.76172,0.1875 c 0.0273,0.0469 0.0469,0.0898 0.0781,0.13281 0.0391,-0.0273 0.0742,-0.0586 0.10938,-0.0937 -0.0586,0.004 -0.1211,-0.0156 -0.1875,-0.0391 z m 0.35937,0.64063 c -0.39062,0 -0.70703,0.24218 -0.70703,0.53515 0,0.28906 0.31641,0.52344 0.70703,0.52344 0.39063,0 0.70703,-0.23438 0.70703,-0.52344 0,-0.29297 -0.3164,-0.53515 -0.70703,-0.53515 z m 0,0.21484 c 0.23438,0 0.42188,0.14453 0.42188,0.32031 0,0.17188 -0.1875,0.3125 -0.42188,0.3125 -0.23437,0 -0.42187,-0.14062 -0.42187,-0.3125 0,-0.17578 0.1875,-0.32031 0.42187,-0.32031 z m 2.55859,0.22656 c 0.0703,0.004 0.10157,0.0898 0.0703,0.1875 -0.0352,0.0937 -0.11719,0.16016 -0.19141,0.15625 -0.0703,-0.008 -0.10156,-0.0937 -0.0703,-0.1875 0.0351,-0.0977 0.11719,-0.16406 0.1914,-0.15625 z m 0,0"
           id="path508"
           style="fill:#241f31" /></g></g><g
       inkscape:groupmode="layer"
       id="layer3"
       inkscape:label="grid"
       style="display:none"
       sodipodi:insensitive="true"><circle
         cx="64.000031"
         cy="236"
         r="59.504131"
         id="circle2892"
         style="display:inline;opacity:0.1;vector-effect:none;fill:none;fill-opacity:1;stroke:#000000;stroke-width:0.99;stroke-linecap:butt;stroke-linejoin:miter;stroke-miterlimit:4;stroke-dasharray:0.99, 0.99;stroke-dashoffset:0;stroke-opacity:1;marker:none;marker-start:none;marker-mid:none;marker-end:none;paint-order:normal;enable-background:new" /><rect
         ry="7.9292889"
         rx="8.701004"
         y="180.49496"
         x="20.495007"
         height="111.01005"
         width="87.009987"
         id="rect2894"
         style="display:inline;opacity:0.1;vector-effect:none;fill:none;fill-opacity:1;stroke:#000000;stroke-width:0.99;stroke-linecap:butt;stroke-linejoin:miter;stroke-miterlimit:4;stroke-dasharray:0.99, 0.99;stroke-dashoffset:0;stroke-opacity:1;marker:none;marker-start:none;marker-mid:none;marker-end:none;paint-order:normal;enable-background:new" /><rect
         ry="7.9238095"
         rx="7.9238095"
         y="184.49524"
         x="12.495266"
         height="103.00952"
         width="103.00952"
         id="rect2896"
         style="display:inline;opacity:0.1;vector-effect:none;fill:none;fill-opacity:1;stroke:#000000;stroke-width:0.99;stroke-linecap:butt;stroke-linejoin:miter;stroke-miterlimit:4;stroke-dasharray:0.99, 0.99;stroke-dashoffset:0;stroke-opacity:1;marker:none;marker-start:none;marker-mid:none;marker-end:none;paint-order:normal;enable-background:new" /><rect
         ry="8.701005"
         rx="7.9292889"
         y="200.49496"
         x="8.4950066"
         height="87.010048"
         width="111.01004"
         id="rect2898"
         style="display:inline;opacity:0.1;vector-effect:none;fill:none;fill-opacity:1;stroke:#000000;stroke-width:0.99;stroke-linecap:butt;stroke-linejoin:miter;stroke-miterlimit:4;stroke-dasharray:0.99, 0.99;stroke-dashoffset:0;stroke-opacity:1;marker:none;marker-start:none;marker-mid:none;marker-end:none;paint-order:normal;enable-background:new" /><path
         inkscape:connector-curvature="0"
         id="path2900"
         d="M 2.6203015e-5,288.99999 H 128.00003"
         style="display:inline;fill:none;stroke:#62a0ea;stroke-width:2;stroke-linecap:butt;stroke-linejoin:miter;stroke-miterlimit:4;stroke-dasharray:none;stroke-opacity:1;enable-background:new" /></g></g></svg>
